<svg id="Groupe_100" data-name="Groupe 100" xmlns="http://www.w3.org/2000/svg" xmlns:xlink="http://www.w3.org/1999/xlink" width="155.647" height="154.836" viewBox="0 0 155.647 154.836">
  <defs>
    <clipPath id="clip-path">
      <rect id="Rectangle_94" data-name="Rectangle 94" width="155.647" height="154.836" fill="none"/>
    </clipPath>
  </defs>
  <path id="Tracé_110" data-name="Tracé 110" d="M263.279,649.935l.808-3.536-11.1-2.536.564-2.468,14.055,3.211-3.287,14.388-14.033-3.206.564-2.468,11.075,2.53.818-3.58-9.073-2.073.533-2.335Z" transform="translate(-196.929 -504.654)" fill="#fff"/>
  <path id="Tracé_111" data-name="Tracé 111" d="M200.12,627.062l5.6-10.868L197,611.7l1.16-2.25,11.416,5.884-6.762,13.119Z" transform="translate(-155.003 -479.519)" fill="#fff"/>
  <path id="Tracé_112" data-name="Tracé 112" d="M112.537,571.658l2.406-2.714-8.518-7.551,1.68-1.895,10.788,9.564L109.1,580.106l-10.771-9.549,1.68-1.895,8.5,7.536,2.436-2.748-6.964-6.174,1.589-1.792Z" transform="translate(-77.368 -440.217)" fill="#fff"/>
  <path id="Tracé_113" data-name="Tracé 113" d="M57.781,519.385l-8.745,13.562-1.843-2.8,8.058-11.991.577.877L41.64,521.7l-1.818-2.763L55.7,516.221Z" transform="translate(-31.332 -406.166)" fill="#fff"/>
  <path id="Tracé_114" data-name="Tracé 114" d="M37.35,438.616,21.123,437l-1.1-3.1L31.6,422.38l1.1,3.118L22.195,435.655l-.487-1.376,14.546,1.241Zm-4.257-2.389-2.387.845-3.257-9.2,2.387-.845Z" transform="translate(-15.757 -332.332)" fill="#fff"/>
  <path id="Tracé_115" data-name="Tracé 115" d="M0,364.511l1.676,15.467,2.517-.272-.676-6.237,12.156-1.317-.327-3.016L3.191,370.452l-.673-6.214Z" transform="translate(0 -286.585)" fill="#fff"/>
  <path id="Tracé_116" data-name="Tracé 116" d="M.888,289.2l14.6,2.14,2.091-14.265-2.505-.367-1.651,11.263-3.589-.526,1.35-9.209-2.37-.348L7.467,287.1l-3.634-.533,1.647-11.24-2.505-.367Z" transform="translate(-0.699 -216.339)" fill="#fff"/>
  <path id="Tracé_117" data-name="Tracé 117" d="M24.82,178.5,31.9,164.646l2.255,1.152-7.077,13.855Zm4.824-4.58,1.38-2.7L42.2,176.926l-1.38,2.7Z" transform="translate(-19.529 -129.545)" fill="#fff"/>
  <path id="Tracé_118" data-name="Tracé 118" d="M72.051,98.175l2.066-2.222L84.925,106l-2.066,2.222Zm6.278,2.193L86.3,91.8l1.854,1.724-7.969,8.57ZM81.5,88.018,83.562,85.8,94.37,95.846,92.3,98.068Z" transform="translate(-56.69 -67.505)" fill="#fff"/>
  <path id="Tracé_119" data-name="Tracé 119" d="M158.161,45.36l1.857,3.116,9.779-5.827,1.3,2.175L158.707,52.2l-7.555-12.679,12.365-7.369,1.3,2.175-9.759,5.816,1.88,3.155,7.995-4.765,1.226,2.058Z" transform="translate(-118.927 -25.301)" fill="#fff"/>
  <g id="Groupe_99" data-name="Groupe 99">
    <g id="Groupe_98" data-name="Groupe 98" clip-path="url(#clip-path)">
      <path id="Tracé_120" data-name="Tracé 120" d="M285.892,9.624a5.619,5.619,0,0,1-.726,3.2,6.575,6.575,0,0,1-2.489,2.368,12.469,12.469,0,0,1-4.116,1.373,14.148,14.148,0,0,1-3.825.167,8.556,8.556,0,0,1-3.165-.918,6.537,6.537,0,0,1-2.3-2.026,7.646,7.646,0,0,1-1.237-3.179,7.723,7.723,0,0,1,.11-3.421,6.622,6.622,0,0,1,1.5-2.7,8.6,8.6,0,0,1,2.678-1.938,13.851,13.851,0,0,1,3.662-1.122,12.169,12.169,0,0,1,4.354-.049,6.69,6.69,0,0,1,3.15,1.441,5.57,5.57,0,0,1,1.73,2.818l-2.968.506a3.964,3.964,0,0,0-1.256-1.463,4.492,4.492,0,0,0-1.944-.744,8.26,8.26,0,0,0-2.625.078,8.591,8.591,0,0,0-3.14,1.126A4.779,4.779,0,0,0,271.408,7.2a4.82,4.82,0,0,0-.294,2.885,4.726,4.726,0,0,0,1.229,2.591,4.81,4.81,0,0,0,2.445,1.307,8.584,8.584,0,0,0,3.336.021,8.139,8.139,0,0,0,2.491-.8,4.575,4.575,0,0,0,1.578-1.334,4.126,4.126,0,0,0,.732-1.745Z" transform="translate(-210.782 -0.954)" fill="#fff"/>
      <path id="Tracé_121" data-name="Tracé 121" d="M356.161,13.955,364.6,0l3.267.343,5.424,15.41L370,15.407l-4.647-13.86,1.452.152-7.378,12.6Zm3.988-2.816.264-2.518,9.71,1.019-.264,2.518Z" transform="translate(-280.23)" fill="#fff"/>
      <path id="Tracé_122" data-name="Tracé 122" d="M441.838,25.309l5.517-13.689,9.288,3.743a8.59,8.59,0,0,1,2.586,1.547A4.088,4.088,0,0,1,460.514,19a4.281,4.281,0,0,1-.295,2.623,3.95,3.95,0,0,1-1,1.514,3.138,3.138,0,0,1-1.385.721,4.913,4.913,0,0,1-1.646.087,8.9,8.9,0,0,1-1.787-.388l-.228-.289a12.66,12.66,0,0,1,2.335,1.224,2.709,2.709,0,0,1,1.1,1.38,2.884,2.884,0,0,1-.219,1.916l-1.313,3.258-2.814-1.134,1.236-3.068a2.451,2.451,0,0,0,.215-1.328,1.637,1.637,0,0,0-.741-1A10.088,10.088,0,0,0,452,23.527l-5.311-2.14-2.038,5.057Zm5.739-6.123,6.474,2.609a2.792,2.792,0,0,0,2.039.158,2.147,2.147,0,0,0,1.247-1.293,1.822,1.822,0,0,0-.053-1.669,3.122,3.122,0,0,0-1.613-1.216L449.2,15.166Z" transform="translate(-347.641 -9.143)" fill="#fff"/>
      <path id="Tracé_123" data-name="Tracé 123" d="M534.748,59.614a12.5,12.5,0,0,1,2.868,3.06,6.875,6.875,0,0,1,1.067,2.917,5.852,5.852,0,0,1-.359,2.709,9.105,9.105,0,0,1-1.411,2.435,8.5,8.5,0,0,1-2.12,1.9,6.36,6.36,0,0,1-2.648.932,7.043,7.043,0,0,1-3.11-.388,11.783,11.783,0,0,1-3.519-2.047l-6.585-5.28,9.233-11.515Zm-11.824,6.1,4.164,3.339a7.962,7.962,0,0,0,2.376,1.394,4.372,4.372,0,0,0,2.021.232,4.032,4.032,0,0,0,1.682-.639,5.945,5.945,0,0,0,1.341-1.235,5.735,5.735,0,0,0,.9-1.559,3.867,3.867,0,0,0,.23-1.745,4.422,4.422,0,0,0-.687-1.9,8.18,8.18,0,0,0-1.884-2.008L528.9,58.261Z" transform="translate(-408.298 -42.75)" fill="#fff"/>
      <path id="Tracé_124" data-name="Tracé 124" d="M581.115,147.4l16.037-2.956,1.913,2.67L591.144,161.4l-1.926-2.689,7.279-12.677.85,1.187-14.319,2.848Zm4.753,1.113,2.059-1.474,5.685,7.937-2.058,1.474Z" transform="translate(-457.225 -113.648)" fill="#fff"/>
      <path id="Tracé_125" data-name="Tracé 125" d="M638.348,224.376l-.678-.78,11.478-3.941.985,2.87-13.959,4.793-.985-2.87,7.151-15.069.678.78-11.392,3.911-.985-2.87,13.959-4.793.985,2.87Z" transform="translate(-496.193 -162.402)" fill="#fff"/>
      <path id="Tracé_126" data-name="Tracé 126" d="M658.052,322.189a12.376,12.376,0,0,1,.837-5.045,7.109,7.109,0,0,1,2.579-3.239,8.216,8.216,0,0,1,8.234-.142,7.108,7.108,0,0,1,2.69,3.148,14.185,14.185,0,0,1,.174,10.07,7.117,7.117,0,0,1-2.579,3.227,8.214,8.214,0,0,1-8.234.143,7.118,7.118,0,0,1-2.689-3.136,12.361,12.361,0,0,1-1.011-5.025m2.623-.045a8.652,8.652,0,0,0,.6,3.195,4.69,4.69,0,0,0,1.7,2.138,4.835,4.835,0,0,0,7.3-2.294,8.5,8.5,0,0,0,.5-3.214,8.7,8.7,0,0,0-.615-3.206,4.814,4.814,0,0,0-1.715-2.184,4.787,4.787,0,0,0-7.283,2.339,8.857,8.857,0,0,0-.492,3.226" transform="translate(-517.758 -246.055)" fill="#fff"/>
      <path id="Tracé_127" data-name="Tracé 127" d="M645.2,436.5l-1.034,2.9a2.344,2.344,0,0,0-1.563.206,4.253,4.253,0,0,0-1.479,1.228,7.031,7.031,0,0,0-1.107,2.051,6.154,6.154,0,0,0-.407,1.889,2.327,2.327,0,0,0,.291,1.29,1.7,1.7,0,0,0,.909.712,1.1,1.1,0,0,0,1.045-.112,4,4,0,0,0,1-1.17q.533-.851,1.285-2.278a16.928,16.928,0,0,1,1.28-2.062,8.2,8.2,0,0,1,1.469-1.571,4.125,4.125,0,0,1,1.666-.835,3.283,3.283,0,0,1,1.873.147,3.679,3.679,0,0,1,1.9,1.464,4.766,4.766,0,0,1,.7,2.587,10.258,10.258,0,0,1-.687,3.558,7.789,7.789,0,0,1-2.93,4.175,4.373,4.373,0,0,1-4.076.326l1-2.793a2.251,2.251,0,0,0,2.205-.413,5.206,5.206,0,0,0,1.436-2.261,5.8,5.8,0,0,0,.4-2.412,1.512,1.512,0,0,0-1.079-1.39,1.177,1.177,0,0,0-.753-.026,1.8,1.8,0,0,0-.765.551,8.988,8.988,0,0,0-.906,1.251q-.508.812-1.168,2.054a16.967,16.967,0,0,1-1.255,2.059,6.954,6.954,0,0,1-1.365,1.451,3.4,3.4,0,0,1-1.565.689,3.814,3.814,0,0,1-1.878-.234,3.97,3.97,0,0,1-1.969-1.441,4.437,4.437,0,0,1-.73-2.537,12.638,12.638,0,0,1,2.051-6.328A7.861,7.861,0,0,1,640.6,437.5a6.268,6.268,0,0,1,1.723-.96,4.64,4.64,0,0,1,1.6-.288,3.206,3.206,0,0,1,1.268.246" transform="translate(-501.14 -343.248)" fill="#fff"/>
      <path id="Tracé_128" data-name="Tracé 128" d="M620.611,504.3l2,1.359-3.8,5.585a2.722,2.722,0,0,0-.539,1.95,2.723,2.723,0,0,0,3.028,2.058,2.753,2.753,0,0,0,1.605-1.226l3.59-5.283-10.056-6.834,1.705-2.509,12.207,8.3-5.141,7.566a8.748,8.748,0,0,1-1.547,1.748,5.484,5.484,0,0,1-1.819,1.053,4.226,4.226,0,0,1-2.013.162,5.322,5.322,0,0,1-2.162-.917,5.116,5.116,0,0,1-1.611-1.647,3.984,3.984,0,0,1-.543-1.9,5.38,5.38,0,0,1,.366-2.04,9.81,9.81,0,0,1,1.084-2.062Z" transform="translate(-484.294 -392.934)" fill="#fff"/>
      <path id="Tracé_129" data-name="Tracé 129" d="M545.011,553.829l4.732,15.605-2.44,2.2-15.084-6.272,2.457-2.215,13.412,5.814-1.084.977-4.433-13.91Zm-.574,4.848,1.7,1.881-7.251,6.538-1.7-1.881Z" transform="translate(-418.754 -435.757)" fill="#fff"/>
      <path id="Tracé_130" data-name="Tracé 130" d="M467.552,629.583a5.616,5.616,0,0,1-.217-3.276,6.571,6.571,0,0,1,1.71-2.98,12.461,12.461,0,0,1,3.553-2.49,14.147,14.147,0,0,1,3.618-1.251,8.555,8.555,0,0,1,3.3-.023,6.54,6.54,0,0,1,2.783,1.285,8.53,8.53,0,0,1,2.962,6,6.615,6.615,0,0,1-.664,3.011,8.586,8.586,0,0,1-2.014,2.621,13.847,13.847,0,0,1-3.189,2.12,12.181,12.181,0,0,1-4.159,1.289,6.687,6.687,0,0,1-3.431-.483,5.569,5.569,0,0,1-2.462-2.207l2.7-1.332a3.959,3.959,0,0,0,1.622,1.044,4.5,4.5,0,0,0,2.075.159,8.265,8.265,0,0,0,2.494-.823,8.588,8.588,0,0,0,2.689-1.975,4.535,4.535,0,0,0,.666-5.352,4.726,4.726,0,0,0-1.917-2.132,4.808,4.808,0,0,0-2.716-.555,8.589,8.589,0,0,0-3.2.931,8.145,8.145,0,0,0-2.16,1.473,4.57,4.57,0,0,0-1.131,1.728,4.127,4.127,0,0,0-.2,1.881Z" transform="translate(-367.584 -487.359)" fill="#fff"/>
      <path id="Tracé_131" data-name="Tracé 131" d="M394.254,653.059l-.623-3.573-11.214,1.956-.435-2.494,14.2-2.478,2.537,14.54-14.18,2.474-.435-2.494,11.191-1.953-.631-3.618-9.169,1.6-.412-2.359Z" transform="translate(-300.546 -508.648)" fill="#fff"/>
    </g>
  </g>
</svg>
